HIERARCHY
ROOT Hips
{
	OFFSET 0.0000 0.0000 0.0000
	CHANNELS 6 Xposition Yposition Zposition Zrotation Xrotation Yrotation
	JOINT Ab
	{
		OFFSET -0.0000 8.0846 -0.0000
		CHANNELS 3 Zrotation Xrotation Yrotation
		JOINT Chest
		{
			OFFSET -0.0000 25.0068 -0.0000
			CHANNELS 3 Zrotation Xrotation Yrotation
			JOINT Neck
			{
				OFFSET -0.0000 25.0068 0.0000
				CHANNELS 3 Zrotation Xrotation Yrotation
				JOINT Head
				{
					OFFSET -0.0000 10.7556 0.0000
					CHANNELS 3 Zrotation Xrotation Yrotation
					End Site
					{
						OFFSET -0.0000 16.6222 0.0000
					}
				}
			}
			JOINT LeftCollar
			{
				OFFSET -0.0000 25.0068 0.0000
				CHANNELS 3 Zrotation Xrotation Yrotation
				JOINT LeftShoulder
				{
					OFFSET 19.5556 -0.0000 0.0000
					CHANNELS 3 Zrotation Xrotation Yrotation
					JOINT LeftElbow
					{
						OFFSET 27.1828 0.0000 0.0000
						CHANNELS 3 Zrotation Xrotation Yrotation
						JOINT LeftWrist
						{
							OFFSET 23.3157 0.0000 0.0000
							CHANNELS 3 Zrotation Xrotation Yrotation
							End Site
							{
								OFFSET 0.0000 -14.6667 0.0000
							}
						}
					}
				}
			}
			JOINT RightCollar
			{
				OFFSET -0.0000 25.0068 0.0000
				CHANNELS 3 Zrotation Xrotation Yrotation
				JOINT RightShoulder
				{
					OFFSET -19.5556 0.0000 0.0000
					CHANNELS 3 Zrotation Xrotation Yrotation
					JOINT RightElbow
					{
						OFFSET -27.1828 0.0000 0.0000
						CHANNELS 3 Zrotation Xrotation Yrotation
						JOINT RightWrist
						{
							OFFSET -23.3157 0.0000 0.0000
							CHANNELS 3 Zrotation Xrotation Yrotation
							End Site
							{
								OFFSET -0.0000 -14.6667 0.0000
							}
						}
					}
				}
			}
		}
	}
	JOINT LeftHip
	{
		OFFSET 11.7333 0.0000 0.0000
		CHANNELS 3 Zrotation Xrotation Yrotation
		JOINT LeftKnee
		{
			OFFSET -0.0000 -40.8688 0.0000
			CHANNELS 3 Zrotation Xrotation Yrotation
			JOINT LeftAnkle
			{
				OFFSET -0.0000 -44.4337 0.0000
				CHANNELS 3 Zrotation Xrotation Yrotation
				End Site
				{
					OFFSET -0.0000 -4.8889 16.6222
				}
			}
		}
	}
	JOINT RightHip
	{
		OFFSET -11.7333 0.0000 0.0000
		CHANNELS 3 Zrotation Xrotation Yrotation
		JOINT RightKnee
		{
			OFFSET -0.0000 -40.8688 0.0000
			CHANNELS 3 Zrotation Xrotation Yrotation
			JOINT RightAnkle
			{
				OFFSET -0.0000 -44.4337 0.0000
				CHANNELS 3 Zrotation Xrotation Yrotation
				End Site
				{
					OFFSET -0.0000 -4.8889 16.6222
				}
			}
		}
	}
}
MOTION
Frames: 21
Frame Time: 0.010000
-2.4389 88.7241 188.7057 2.4021 359.6945 174.9750 1.4420 359.1274 358.5844 359.4319 11.9604 358.6330 3.3405 341.5165 2.3717 0.7463 3.4874 1.8031 338.7415 358.5205 7.9231 300.6138 30.2251 355.0682 16.7535 354.2427 322.2507 81.3492 0.9438 339.6093 22.1502 359.1231 355.4825 58.9538 43.3117 8.5287 337.9320 354.1469 29.4444 276.7933 352.5814 21.5921 2.1255 358.2952 357.9429 358.9955 10.6671 359.0656 356.5610 351.4571 21.6484 1.6620 352.1895 359.6135 358.7832 19.0610 9.1401 355.8213 345.2582 337.8957 
-2.4454 88.7248 188.6940 2.4003 359.7148 174.9712 1.4373 359.1511 358.5876 359.4314 11.9669 358.6364 3.3219 341.4834 2.3613 0.7638 3.5514 1.7950 338.7430 358.5007 7.9489 300.6273 30.3335 355.0460 16.8422 354.2118 322.2402 81.2863 0.9215 339.6337 22.1502 359.1231 355.4845 58.9245 43.3145 8.5595 337.9376 354.1337 29.4724 276.7977 352.6060 21.6145 2.1183 358.3296 357.9275 358.9910 10.6561 359.0704 356.4100 351.4222 21.6284 1.6528 352.2194 359.6298 358.7862 19.0611 9.1504 355.8282 345.2487 337.8753 
-2.4515 88.7253 188.6888 2.4015 359.7181 174.9695 1.4418 359.1675 358.5834 359.4258 11.9659 358.6331 3.2912 341.4521 2.3416 0.7862 3.6102 1.7786 338.7406 358.5019 7.9963 300.6677 30.5037 354.9840 16.9192 354.1932 322.2875 81.3242 0.8804 339.7455 22.1525 359.1213 355.4863 58.8930 43.3335 8.5906 337.9249 354.1184 29.4915 276.8172 352.5998 21.6105 2.1160 358.3351 357.9301 358.9860 10.6610 359.0524 356.3396 351.3967 21.6358 1.6510 352.2261 359.6400 358.7874 19.0591 9.1398 355.8292 345.2475 337.8762 
-2.4582 88.7263 188.6846 2.4023 359.7213 174.9733 1.4467 359.1957 358.5791 359.4207 11.9405 358.6311 3.2166 341.4336 2.3010 0.8582 3.6765 1.7456 338.7321 358.5017 8.0056 300.6942 30.5966 354.9812 16.9094 354.2092 322.3214 81.5577 0.8030 339.8950 22.1593 359.1198 355.4840 58.8622 43.3593 8.6062 337.9333 354.0960 29.5220 276.8020 352.6337 21.6241 2.1117 358.3429 357.9357 358.9878 10.6547 359.0736 356.5272 351.4414 21.6412 1.6444 352.2343 359.6510 358.7933 19.0559 9.1419 355.8407 345.2374 337.8717 
-2.4645 88.7279 188.6816 2.4030 359.7196 174.9795 1.4484 359.2086 358.5753 359.4197 11.9402 358.6269 3.1678 341.3999 2.2717 0.9012 3.7328 1.7213 338.7299 358.4979 8.0181 300.7149 30.6755 354.9568 16.9499 354.1853 322.3301 81.5583 0.7710 339.9358 22.1599 359.1160 355.4820 58.8431 43.3773 8.6269 337.9168 354.0983 29.5386 276.8250 352.6268 21.6173 2.1088 358.3369 357.9233 358.9849 10.6632 359.0702 356.5989 351.4476 21.6621 1.6395 352.2380 359.6532 358.7969 19.0517 9.1155 355.8590 345.2304 337.8969 
-2.4694 88.7291 188.6771 2.4020 359.7223 174.9794 1.4459 359.2187 358.5731 359.4182 11.9506 358.6246 3.1425 341.3770 2.2671 0.9530 3.7688 1.7204 338.7315 358.5008 8.0139 300.7150 30.6237 354.9496 16.9357 354.1758 322.2881 81.3871 0.8261 339.7976 22.1548 359.1015 355.5019 58.8602 43.4089 8.6162 337.8392 354.0831 29.5716 276.8587 352.6470 21.6074 2.1091 358.3479 357.9300 358.9754 10.6533 359.0478 356.6022 351.4437 21.6788 1.6348 352.2475 359.6662 358.8010 19.0411 9.1142 355.8532 345.2339 337.8861 
-2.4763 88.7294 188.6712 2.4027 359.7303 174.9819 1.4230 359.2183 358.5794 359.4752 12.0194 358.6253 3.0409 341.2579 2.2341 1.0078 3.8641 1.6972 338.7344 358.4733 8.0469 300.7115 30.7652 354.8779 17.0451 354.1342 322.2993 81.3288 0.8052 339.8631 22.0990 359.1047 355.4614 58.7719 43.4467 8.7562 337.8574 354.0812 29.5759 276.8482 352.6462 21.5996 2.1045 358.3575 357.9154 358.9721 10.6552 359.0707 356.5889 351.4368 21.6602 1.6284 352.2666 359.6744 358.8078 19.0297 9.0725 355.8560 345.2161 337.9086 
-2.4829 88.7306 188.6664 2.3998 359.7334 174.9798 1.3933 359.2111 358.5869 359.5379 12.0915 358.6278 2.9262 341.1489 2.1978 1.0870 3.9463 1.6753 338.7414 358.4771 8.0796 300.7063 30.8478 354.7950 17.0491 354.1587 322.3554 81.3886 0.7590 339.9078 22.0390 359.0951 355.4312 58.6983 43.4737 8.8693 337.8785 354.0782 29.6087 276.8143 352.6938 21.5901 2.0976 358.3645 357.9211 358.9709 10.6521 359.0840 356.5955 351.4418 21.6472 1.6191 352.2751 359.6925 358.8189 19.0268 9.0585 355.8544 345.2075 337.8999 
-2.4906 88.7315 188.6639 2.3963 359.7271 174.9890 1.3820 359.2117 358.5862 359.5461 12.1075 358.6258 2.8860 341.1061 2.1676 1.1439 4.0053 1.6463 338.7502 358.4778 8.0589 300.6909 30.8279 354.7844 17.0536 354.1740 322.3689 81.4141 0.7136 339.8791 22.0351 359.1174 355.4167 58.6543 43.4763 8.9305 337.8940 354.0836 29.6237 276.8132 352.6822 21.6026 2.0894 358.3530 357.9086 358.9694 10.6610 359.0825 356.6212 351.4462 21.6556 1.6051 352.2745 359.6951 358.8243 19.0210 9.0747 356.0356 345.0955 337.8263 
-2.4987 88.7331 188.6601 2.3938 359.7288 174.9952 1.3726 359.2211 358.5867 359.5514 12.1210 358.6267 2.8666 341.0920 2.1495 1.1576 4.0160 1.6295 338.7618 358.4896 8.0142 300.6556 30.6850 354.7984 16.9544 354.2171 322.3609 81.4606 0.6947 339.7458 22.0268 359.1152 355.4146 58.6493 43.4849 8.9494 337.8717 354.0602 29.6509 276.8337 352.7057 21.6293 2.0838 358.3591 357.9048 358.9643 10.6568 359.0782 356.6170 351.4428 21.6585 1.5923 352.2830 359.6967 358.8327 19.0162 9.0650 355.8393 345.2222 337.8989 
-2.5057 88.7341 188.6633 2.3955 359.7120 175.0036 1.3760 359.2260 358.5827 359.5467 12.1172 358.6230 2.8662 341.0889 2.1454 1.1632 4.0130 1.6256 338.7704 358.4980 8.0231 300.6636 30.7488 354.7552 16.9959 354.1703 322.3698 81.4316 0.7176 339.7947 22.0224 359.1056 355.4116 58.6329 43.4927 8.9775 337.8405 354.0682 29.6837 276.8416 352.7335 21.6098 2.0809 358.3250 357.9069 358.9681 10.6813 359.0888 356.6131 351.4348 21.6359 1.5909 352.2630 359.7072 358.8381 19.0178 9.0314 355.8518 345.2183 337.9076 
-2.5122 88.7354 188.6613 2.3946 359.7112 175.0091 1.3697 359.2415 358.5829 359.5455 12.1138 358.6237 2.8606 341.0856 2.1390 1.1709 4.0078 1.6196 338.7798 358.4859 8.0201 300.6518 30.7509 354.7526 17.0032 354.1787 322.3692 81.4375 0.7056 339.8026 22.0200 359.1047 355.4064 58.5914 43.5187 9.0194 337.8503 354.0620 29.6964 276.8385 352.7430 21.5984 2.0778 358.3195 357.9122 358.9645 10.6905 359.0737 356.4674 351.4013 21.6174 1.5836 352.2675 359.7142 358.8421 19.0126 9.0135 355.8564 345.2152 337.9211 
-2.5197 88.7370 188.6559 2.3905 359.7195 175.0108 1.3550 359.2551 358.5873 359.5519 12.1286 358.6260 2.8521 341.0821 2.1313 1.1796 4.0016 1.6124 338.7768 358.5104 8.0276 300.6706 30.7509 354.7155 16.9432 354.1948 322.4144 81.4826 0.6573 339.7442 22.0089 359.0903 355.4114 58.5783 43.5372 9.0340 337.8198 354.0474 29.7267 276.8862 352.7510 21.5601 2.0692 358.3290 357.8932 358.9594 10.6928 359.0650 356.2543 351.3557 21.6001 1.5709 352.2880 359.7220 358.8480 18.9958 8.9988 355.8804 345.2069 337.9403 
-2.5268 88.7375 188.6517 2.3892 359.7171 175.0088 1.3496 359.2629 358.5926 359.5495 12.1342 358.6326 2.8555 341.0817 2.1283 1.1765 3.9907 1.6095 338.7799 358.4877 8.0347 300.6780 30.8686 354.7090 17.0533 354.1603 322.4185 81.4692 0.6266 339.8756 22.0036 359.0987 355.4002 58.5361 43.5561 9.0837 337.8368 354.0572 29.6968 276.9940 352.5152 21.5428 2.0687 358.3276 357.8858 358.9485 10.6964 359.0633 356.2599 351.3467 21.6088 1.5632 352.2936 359.7414 358.8563 18.9866 8.9942 355.8778 345.2017 337.9288 
-2.5349 88.7382 188.6486 2.3880 359.7143 175.0170 1.3495 359.2723 358.5933 359.5401 12.1398 358.6337 2.8582 341.0828 2.1240 1.1733 3.9796 1.6052 338.7836 358.4886 8.0345 300.6890 30.9051 354.6957 17.0401 354.1669 322.4414 81.5404 0.5853 339.9196 22.0041 359.0996 355.3832 58.4932 43.5749 9.1267 337.8412 354.0679 29.6942 277.0997 352.3323 21.5323 2.0673 358.3197 357.8629 358.9344 10.7077 359.0606 356.3688 351.3490 21.6436 1.5521 352.3005 359.7552 358.8688 18.9790 9.0062 355.8729 345.2101 337.9043 
-2.5439 88.7384 188.6475 2.3826 359.6866 175.0479 1.3531 359.2532 358.5758 359.5275 12.1418 358.6188 2.8549 341.0888 2.1126 1.1733 3.9689 1.5944 338.7854 358.4915 8.0211 300.6971 30.9501 354.6990 17.0605 354.1514 322.4600 81.5597 0.5414 339.9341 22.0092 359.0846 355.3706 58.4539 43.5441 9.1289 337.8649 354.0509 29.8048 277.0642 352.3389 21.5426 2.0569 358.2695 357.8367 358.9339 10.7385 359.0740 356.5247 351.3714 21.6538 1.5351 352.2896 359.7342 358.8785 18.9637 9.0806 355.8365 345.2231 337.8243 
-2.5517 88.7379 188.6460 2.3808 359.6710 175.0666 1.3557 359.2499 358.5648 359.5190 12.1424 358.6078 2.8473 341.0964 2.1119 1.1887 3.9551 1.5953 338.7921 358.4987 8.0035 300.6797 30.8706 354.7171 17.0151 354.1737 322.4315 81.5912 0.5349 339.8821 22.0076 359.0889 355.3768 58.4233 43.5298 9.1404 337.8764 354.0486 29.8886 277.1135 352.3981 21.5308 2.0549 358.2384 357.8139 358.9250 10.7675 359.0605 356.6024 351.3727 21.6857 1.5242 352.2895 359.7419 358.8895 18.9455 9.1115 355.8260 345.2254 337.7725 
-2.5613 88.7380 188.6460 2.3754 359.6572 175.0709 1.3545 359.2529 358.5619 359.5097 12.1433 358.6069 2.8352 341.1059 2.1231 1.2211 3.9378 1.6092 338.7912 358.4952 8.0174 300.6755 30.8334 354.7087 16.9916 354.1846 322.4184 81.6400 0.5268 339.8401 22.0042 359.0894 355.3861 58.3911 43.5567 9.1656 337.8726 354.0265 29.8969 277.1628 352.3550 21.4407 2.0434 358.2134 357.8139 358.9245 10.7948 359.0480 356.3740 351.3342 21.6511 1.5085 352.2781 359.7588 358.9048 18.9416 9.0930 355.8480 345.2061 337.7750 
-2.5704 88.7381 188.6386 2.3720 359.6651 175.0686 1.3505 359.2671 358.5621 359.5043 12.1497 358.6074 2.8376 341.1077 2.1321 1.2199 3.9333 1.6176 338.7878 358.4896 8.0426 300.6889 30.9335 354.6921 17.0483 354.1570 322.4591 81.6619 0.4981 339.9338 22.0029 359.1167 355.3974 58.3466 43.5467 9.2076 337.8655 354.0336 29.8744 277.1908 352.2080 21.3119 2.0357 358.2188 357.8123 358.9159 10.8094 359.0558 356.3394 351.3162 21.6432 1.4933 352.3003 359.7886 358.9213 18.9227 9.0163 355.8621 345.1972 337.8277 
-2.5813 88.7382 188.6312 2.3683 359.6720 175.0680 1.3463 359.2783 358.5633 359.5011 12.1587 358.6086 2.8446 341.1066 2.1400 1.2077 3.9331 1.6240 338.7819 358.4844 8.0509 300.6868 30.9529 354.6954 17.0692 354.1577 322.4739 81.6471 0.4939 339.9503 21.9951 359.1155 355.4114 58.3358 43.5626 9.2200 337.8399 354.0132 29.9988 277.1841 352.4489 21.4846 2.0250 358.2234 357.7965 358.9092 10.8207 359.0744 356.3689 351.3089 21.6415 1.4763 352.3203 359.8028 358.9356 18.9027 8.9518 355.8563 345.1977 337.8795 
-2.5892 88.7389 188.6306 2.3673 359.6596 175.0752 1.3411 359.2826 358.5608 359.5013 12.1562 358.6064 2.8445 341.0967 2.1392 1.2063 3.9318 1.6229 338.7912 358.5169 7.9987 300.6507 30.7497 354.7351 16.9222 354.2166 322.4413 81.7460 0.5015 339.8173 21.9967 359.1066 355.3986 58.2893 43.5741 9.2638 337.8532 354.0055 30.0255 277.1500 352.4910 21.4758 2.0242 358.1893 357.7804 358.8969 10.8596 359.0579 356.3919 351.2812 21.6752 1.4669 352.3170 359.8257 358.9494 18.8874 8.9242 355.8559 345.2034 337.8854 
